<svg xmlns="http://www.w3.org/2000/svg" viewBox="0 0 500 900" width="500" height="900">
  <defs>
    <style>
      @font-face {
        font-family: 'Cormorant Garamond';
        src: url('https://fonts.gstatic.com/s/cormorantgaramond/v16/co3YmX5slCNuHLi8bLeY9MK7whWMhyjYqXtK.woff2') format('woff2');
        font-weight: 700;
        font-style: italic;
      }
    </style>
    <!-- Track path for curved text -->
    <path id="topArc" d="M 80,175 A 170,100 0 0 1 420,175" fill="none"/>
    <path id="bottomArc" d="M 60,210 A 190,120 0 0 0 440,210" fill="none"/>
  </defs>

  <rect width="500" height="900" fill="#f9f9f9"/>

  <!-- Option 1: Clean track, text below -->
  <text x="20" y="22" font-family="Georgia, serif" font-size="10" fill="#799496" letter-spacing="2">1. TRACK + TEXT BELOW</text>
  <g transform="translate(50, 35)">
    <ellipse cx="200" cy="110" rx="198" ry="108" fill="none" stroke="#14080E" stroke-width="2.5"/>
    <ellipse cx="200" cy="110" rx="172" ry="84" fill="none" stroke="#14080E" stroke-width="1.2"/>
    <ellipse cx="200" cy="110" rx="148" ry="62" fill="none" stroke="#14080E" stroke-width="1.2"/>
    <ellipse cx="200" cy="110" rx="124" ry="42" fill="none" stroke="#14080E" stroke-width="1.2"/>
    <ellipse cx="200" cy="110" rx="100" ry="24" fill="none" stroke="#14080E" stroke-width="1.2"/>
    <!-- Straight lines left -->
    <line x1="2" y1="110" x2="2" y2="218" stroke="#14080E" stroke-width="2.5"/>
    <line x1="28" y1="110" x2="28" y2="194" stroke="#14080E" stroke-width="1.2"/>
    <line x1="52" y1="110" x2="52" y2="172" stroke="#14080E" stroke-width="1.2"/>
    <line x1="76" y1="110" x2="76" y2="152" stroke="#14080E" stroke-width="1.2"/>
    <line x1="100" y1="110" x2="100" y2="134" stroke="#14080E" stroke-width="1.2"/>
    <!-- Straight lines right -->
    <line x1="398" y1="110" x2="398" y2="218" stroke="#14080E" stroke-width="2.5"/>
    <line x1="372" y1="110" x2="372" y2="194" stroke="#14080E" stroke-width="1.2"/>
    <line x1="348" y1="110" x2="348" y2="172" stroke="#14080E" stroke-width="1.2"/>
    <line x1="324" y1="110" x2="324" y2="152" stroke="#14080E" stroke-width="1.2"/>
    <line x1="300" y1="110" x2="300" y2="134" stroke="#14080E" stroke-width="1.2"/>
  </g>
  <text x="250" y="278" font-family="'Cormorant Garamond', Georgia, serif" font-weight="700" font-style="italic" font-size="26" fill="#14080E" letter-spacing="3" text-anchor="middle">the norwegian effect.</text>

  <line x1="20" y1="298" x2="480" y2="298" stroke="#e0e0e0" stroke-width="1"/>

  <!-- Option 2: Text inside the track -->
  <text x="20" y="320" font-family="Georgia, serif" font-size="10" fill="#799496" letter-spacing="2">2. TEXT INSIDE TRACK</text>
  <g transform="translate(50, 333)">
    <ellipse cx="200" cy="110" rx="198" ry="108" fill="none" stroke="#14080E" stroke-width="2.5"/>
    <ellipse cx="200" cy="110" rx="172" ry="84" fill="none" stroke="#14080E" stroke-width="1.2"/>
    <ellipse cx="200" cy="110" rx="148" ry="62" fill="none" stroke="#14080E" stroke-width="1.2"/>
    <ellipse cx="200" cy="110" rx="124" ry="42" fill="none" stroke="#14080E" stroke-width="1.2"/>
    <ellipse cx="200" cy="110" rx="100" ry="24" fill="none" stroke="#14080E" stroke-width="1.2"/>
    <line x1="2" y1="110" x2="2" y2="218" stroke="#14080E" stroke-width="2.5"/>
    <line x1="28" y1="110" x2="28" y2="194" stroke="#14080E" stroke-width="1.2"/>
    <line x1="52" y1="110" x2="52" y2="172" stroke="#14080E" stroke-width="1.2"/>
    <line x1="76" y1="110" x2="76" y2="152" stroke="#14080E" stroke-width="1.2"/>
    <line x1="100" y1="110" x2="100" y2="134" stroke="#14080E" stroke-width="1.2"/>
    <line x1="398" y1="110" x2="398" y2="218" stroke="#14080E" stroke-width="2.5"/>
    <line x1="372" y1="110" x2="372" y2="194" stroke="#14080E" stroke-width="1.2"/>
    <line x1="348" y1="110" x2="348" y2="172" stroke="#14080E" stroke-width="1.2"/>
    <line x1="324" y1="110" x2="324" y2="152" stroke="#14080E" stroke-width="1.2"/>
    <line x1="300" y1="110" x2="300" y2="134" stroke="#14080E" stroke-width="1.2"/>
    <text x="200" y="100" font-family="'Cormorant Garamond', Georgia, serif" font-weight="700" font-style="italic" font-size="18" fill="none" stroke="#14080E" stroke-width="0.5" letter-spacing="4" text-anchor="middle">the</text>
    <text x="200" y="124" font-family="'Cormorant Garamond', Georgia, serif" font-weight="700" font-style="italic" font-size="18" fill="#14080E" letter-spacing="2" text-anchor="middle">norwegian effect.</text>
  </g>

  <line x1="20" y1="595" x2="480" y2="595" stroke="#e0e0e0" stroke-width="1"/>

  <!-- Option 3: Dark version, track + text below -->
  <text x="20" y="617" font-family="Georgia, serif" font-size="10" fill="#799496" letter-spacing="2">3. DARK VERSION</text>
  <rect x="20" y="628" width="460" height="260" rx="16" fill="#14080E"/>
  <g transform="translate(70, 648)">
    <ellipse cx="180" cy="100" rx="178" ry="96" fill="none" stroke="#E9EB9E" stroke-width="2"/>
    <ellipse cx="180" cy="100" rx="154" ry="74" fill="none" stroke="#E9EB9E" stroke-width="1"/>
    <ellipse cx="180" cy="100" rx="130" ry="54" fill="none" stroke="#E9EB9E" stroke-width="1"/>
    <ellipse cx="180" cy="100" rx="108" ry="36" fill="none" stroke="#E9EB9E" stroke-width="1"/>
    <ellipse cx="180" cy="100" rx="86" ry="20" fill="none" stroke="#E9EB9E" stroke-width="1"/>
    <line x1="2" y1="100" x2="2" y2="196" stroke="#E9EB9E" stroke-width="2"/>
    <line x1="26" y1="100" x2="26" y2="174" stroke="#E9EB9E" stroke-width="1"/>
    <line x1="50" y1="100" x2="50" y2="154" stroke="#E9EB9E" stroke-width="1"/>
    <line x1="358" y1="100" x2="358" y2="196" stroke="#E9EB9E" stroke-width="2"/>
    <line x1="334" y1="100" x2="334" y2="174" stroke="#E9EB9E" stroke-width="1"/>
    <line x1="310" y1="100" x2="310" y2="154" stroke="#E9EB9E" stroke-width="1"/>
  </g>
  <text x="250" y="862" font-family="'Cormorant Garamond', Georgia, serif" font-weight="700" font-style="italic" font-size="24" fill="#E9EB9E" letter-spacing="3" text-anchor="middle">the norwegian effect.</text>

</svg>
